# xmcd CD database file
#
# Track frame offsets:
#	150
#	13203
#	16695
#	24237
#	32374
#	35308
#	39815
#	44059
#	51890
#	58511
#	62632
#	65634
#	73146
#	77907
#	81199
#	85647
#	97185
#	103318
#	116441
#	123667
#	136467
#	140335
#	151693
#	160659
#	162783
#	166275
#	173852
#	183231
#	186445
#	193669
#	201826
#	207736
#
# Disc length: 2821 seconds
#
# Revision: 0
# Processed by: cddbd v1.5.2PL0 Copyright (c) Steve Scherf et al.
# Submitted via: CDex 1.51
#
DISCID=b90b0320
DTITLE=unknown - various songs
DYEAR=1900
DGENRE=Children Songs
TTITLE0=Noelle and John - Amazing Grace
TTITLE1=Noelle and John - Bicycle Built for Two
TTITLE2=Noelle and John - B-I-N-G-O
TTITLE3=Noelle and John - Clemetine
TTITLE4=Noelle and John - Did You Ever See a Horse Fly?
TTITLE5=Noelle and John - Do Your Ears Hang Low?
TTITLE6=Noelle and John - Eensy Weensy Spider
TTITLE7=Noelle and John - Farmer in the Dell
TTITLE8=Noelle and John - Found a Peanut
TTITLE9=Noelle and John - Frere Jacques
TTITLE10=Noelle and John - Great Green Gobs
TTITLE11=Noelle and John - Home on the Range
TTITLE12=Noelle and John - If You're Happy and You Know I
TTITLE13=Noelle and John - It's Raining, It's Pouring
TTITLE14=Noelle and John - The Itsy Bitsy Spider
TTITLE15=Noelle and John - Kumbaya
TTITLE16=Noelle and John - London Bridge
TTITLE17=Noelle and John - My Bonnie
TTITLE18=Noelle and John - Oh Susannah!
TTITLE19=Noelle and John - Old MacDonald
TTITLE20=Noelle and John - Pop Goes The Weasel
TTITLE21=Noelle and John - She'll Be Comin' Round the Mou
TTITLE22=Noelle and John - Swing Low, Swing Chariot
TTITLE23=Noelle and John - The More We Get Together
TTITLE24=Noelle and John - The Muffin Man
TTITLE25=Noelle and John - This Land is Your Land
TTITLE26=Noelle and John - This Old Man
TTITLE27=Noelle and John - Twinkle, Twinkle Little Star
TTITLE28=Noelle and John - The Wheels on the Bus
TTITLE29=Noelle and John - He's Got the Whole World in Hi
TTITLE30=Noelle and John - I've Been Workin' on the Railr
TTITLE31=Noelle and John - Yankee Doodle
EXTD=
EXTT0=
EXTT1=
EXTT2=
EXTT3=
EXTT4=
EXTT5=
EXTT6=
EXTT7=
EXTT8=
EXTT9=
EXTT10=
EXTT11=
EXTT12=
EXTT13=
EXTT14=
EXTT15=
EXTT16=
EXTT17=
EXTT18=
EXTT19=
EXTT20=
EXTT21=
EXTT22=
EXTT23=
EXTT24=
EXTT25=
EXTT26=
EXTT27=
EXTT28=
EXTT29=
EXTT30=
EXTT31=
PLAYORDER=
